<svg width="148" height="66" viewBox="0 0 148 66" fill="none" xmlns="http://www.w3.org/2000/svg">
<g clip-path="url(#clip0_1_2)">
<path d="M13.0122 14.872V39.736H9.3181V14.872H13.0122ZM9.42466 37.143V39.736H6.58306V39.3808C6.58306 39.3808 6.6541 39.3808 6.79618 39.3808C6.96194 39.3808 7.04482 39.3808 7.04482 39.3808C7.6605 39.3808 8.18146 39.1677 8.6077 38.7414C9.05762 38.2915 9.29442 37.7587 9.3181 37.143H9.42466ZM9.42466 17.465H9.3181C9.29442 16.8493 9.05762 16.3283 8.6077 15.9021C8.18146 15.4522 7.6605 15.2272 7.04482 15.2272C7.04482 15.2272 6.96194 15.2272 6.79618 15.2272C6.6541 15.2272 6.58306 15.2272 6.58306 15.2272V14.872H9.42466V17.465ZM12.9056 37.143H13.0122C13.0359 37.7587 13.2608 38.2915 13.6871 38.7414C14.137 39.1677 14.6698 39.3808 15.2855 39.3808C15.2855 39.3808 15.3565 39.3808 15.4986 39.3808C15.6407 39.3808 15.7235 39.3808 15.7472 39.3808V39.736H12.9056V37.143ZM12.9056 17.465V14.872H15.7472V15.2272C15.7235 15.2272 15.6407 15.2272 15.4986 15.2272C15.3565 15.2272 15.2855 15.2272 15.2855 15.2272C14.6698 15.2272 14.137 15.4522 13.6871 15.9021C13.2608 16.3283 13.0359 16.8493 13.0122 17.465H12.9056ZM26.9122 14.3747C27.3384 14.3747 27.8238 14.3984 28.3685 14.4458C28.9368 14.4931 29.5051 14.5642 30.0734 14.6589C30.6418 14.7299 31.1509 14.8128 31.6008 14.9075C32.0507 14.9786 32.3704 15.0614 32.5598 15.1562L32.3822 19.4896H32.027C32.027 18.3056 31.6008 17.3702 30.7483 16.6835C29.9195 15.9968 28.8539 15.6534 27.5515 15.6534C26.2018 15.6534 25.1125 16.0205 24.2837 16.7546C23.4786 17.4886 23.076 18.3766 23.076 19.4186C23.0523 19.9869 23.1944 20.5552 23.5022 21.1235C23.8338 21.6918 24.3192 22.2128 24.9586 22.6864L31.885 28.192C32.7611 28.8314 33.3886 29.5891 33.7675 30.4653C34.1464 31.3178 34.324 32.2531 34.3003 33.2714C34.253 35.3789 33.5189 37.072 32.0981 38.3507C30.701 39.6058 28.7947 40.2333 26.3794 40.2333C25.5742 40.2333 24.7336 40.1622 23.8574 40.0202C23.005 39.8781 22.1998 39.6531 21.4421 39.3453C20.708 39.0374 20.116 38.6467 19.6661 38.1731C19.5477 37.7469 19.4885 37.2141 19.4885 36.5747C19.5122 35.9117 19.595 35.2368 19.7371 34.5501C19.8792 33.8634 20.0686 33.2595 20.3054 32.7386H20.6251C20.5067 33.9462 20.6843 35.0355 21.1579 36.0064C21.6315 36.9536 22.3301 37.6995 23.2536 38.2442C24.1771 38.7651 25.2427 39.0019 26.4504 38.9546C27.8712 38.9072 29.0315 38.481 29.9314 37.6758C30.8312 36.8707 31.2811 35.8406 31.2811 34.5856C31.2811 33.8752 31.1154 33.2358 30.7838 32.6675C30.4523 32.0755 29.9314 31.5546 29.221 31.1046L22.7208 25.8122C21.7499 25.1018 21.0514 24.2848 20.6251 23.3613C20.1989 22.4141 20.0213 21.455 20.0923 20.4842C20.1397 19.3712 20.4357 18.353 20.9803 17.4294C21.525 16.5059 22.2946 15.7718 23.2891 15.2272C24.2837 14.6589 25.4914 14.3747 26.9122 14.3747ZM32.5954 14.7299L32.5598 15.4758H29.1499V14.7299H32.5954ZM61.1715 14.872V39.736H57.4774V14.872H61.1715ZM44.335 14.872V39.736H40.6409V14.872H44.335ZM57.7971 26.7712V28.0499H43.9798V26.7712H57.7971ZM40.7475 37.143V39.736H37.9059V39.3808C37.9059 39.3808 37.9769 39.3808 38.119 39.3808C38.2848 39.3808 38.3676 39.3808 38.3676 39.3808C38.9833 39.3808 39.5043 39.1677 39.9305 38.7414C40.3804 38.2915 40.6172 37.7587 40.6409 37.143H40.7475ZM40.7475 17.465H40.6409C40.6172 16.8493 40.3804 16.3283 39.9305 15.9021C39.5043 15.4522 38.9833 15.2272 38.3676 15.2272C38.3676 15.2272 38.2848 15.2272 38.119 15.2272C37.9769 15.2272 37.9059 15.2272 37.9059 15.2272V14.872H40.7475V17.465ZM44.2284 37.143H44.335C44.3587 37.7587 44.5836 38.2915 45.0099 38.7414C45.4598 39.1677 45.9926 39.3808 46.6083 39.3808C46.6083 39.3808 46.6793 39.3808 46.8214 39.3808C46.9635 39.3808 47.0464 39.3808 47.07 39.3808V39.736H44.2284V37.143ZM44.2284 17.465V14.872H47.07V15.2272C47.0464 15.2272 46.9635 15.2272 46.8214 15.2272C46.6793 15.2272 46.6083 15.2272 46.6083 15.2272C45.9926 15.2272 45.4598 15.4522 45.0099 15.9021C44.5836 16.3283 44.3587 16.8493 44.335 17.465H44.2284ZM57.584 37.143V39.736H54.7424V39.3808C54.766 39.3808 54.8489 39.3808 54.991 39.3808C55.1331 39.3808 55.2041 39.3808 55.2041 39.3808C55.8198 39.3808 56.3526 39.1677 56.8025 38.7414C57.2524 38.2915 57.4774 37.7587 57.4774 37.143H57.584ZM57.584 17.465H57.4774C57.4774 16.8493 57.2524 16.3283 56.8025 15.9021C56.3526 15.4522 55.8198 15.2272 55.2041 15.2272C55.2041 15.2272 55.1331 15.2272 54.991 15.2272C54.8489 15.2272 54.766 15.2272 54.7424 15.2272V14.872H57.584V17.465ZM61.0649 37.143H61.1715C61.1952 37.7587 61.4201 38.2915 61.8464 38.7414C62.2963 39.1677 62.8291 39.3808 63.4448 39.3808C63.4448 39.3808 63.5158 39.3808 63.6579 39.3808C63.8236 39.3808 63.9065 39.3808 63.9065 39.3808V39.736H61.0649V37.143ZM61.0649 17.465V14.872H63.9065V15.2272C63.9065 15.2272 63.8236 15.2272 63.6579 15.2272C63.5158 15.2272 63.4448 15.2272 63.4448 15.2272C62.8291 15.2272 62.2963 15.4522 61.8464 15.9021C61.4201 16.3283 61.1952 16.8493 61.1715 17.465H61.0649ZM67.5629 15.0851H71.7897L77.9702 33.8752L76.656 40.2688L67.5629 15.0851ZM84.3283 14.3037L84.7901 17.465L77.7571 36.3261C77.7571 36.3261 77.6979 36.5274 77.5795 36.9299C77.4611 37.3325 77.3309 37.8416 77.1888 38.4573C77.0704 39.0493 76.9993 39.6531 76.9757 40.2688H76.656L75.839 36.6102L84.0086 14.3037H84.3283ZM84.3283 14.3392L91.9651 33.5555L90.7574 40.2688L82.5523 19.7027L84.3283 14.3392ZM98.4297 15.0851L91.7875 36.3261C91.7875 36.3261 91.7283 36.5392 91.6099 36.9654C91.4915 37.3917 91.3731 37.9126 91.2547 38.5283C91.1363 39.1203 91.0771 39.7005 91.0771 40.2688H90.7574L90.047 36.7523L96.2275 15.0851H98.4297ZM95.5526 17.4294C95.7421 16.719 95.6829 16.1744 95.375 15.7955C95.0672 15.4166 94.6765 15.2272 94.2029 15.2272H93.8832V14.872H101.094V15.2272C101.094 15.2272 101.046 15.2272 100.952 15.2272C100.857 15.2272 100.81 15.2272 100.81 15.2272C100.265 15.2272 99.6729 15.4048 99.0336 15.76C98.3942 16.0915 97.9443 16.648 97.6838 17.4294H95.5526ZM72.6067 17.4294H68.4153C68.1075 16.648 67.6457 16.0915 67.0301 15.76C66.4144 15.4048 65.8342 15.2272 65.2896 15.2272C65.2896 15.2272 65.2422 15.2272 65.1475 15.2272C65.0528 15.2272 65.0054 15.2272 65.0054 15.2272V14.872H74.2406V15.2272H73.9209C73.471 15.2272 73.0685 15.4166 72.7133 15.7955C72.3817 16.1744 72.3462 16.719 72.6067 17.4294ZM110.032 14.2682L121.043 39.5229H116.461L108.647 19.2765L110.032 14.2682ZM102.395 37.143C102.206 37.6166 102.171 38.0192 102.289 38.3507C102.407 38.6822 102.609 38.9427 102.893 39.1322C103.177 39.2979 103.461 39.3808 103.745 39.3808H104.065V39.736H96.7123V39.3808C96.7123 39.3808 96.7715 39.3808 96.8899 39.3808C96.9846 39.3808 97.032 39.3808 97.032 39.3808C97.5766 39.3808 98.1331 39.215 98.7014 38.8835C99.2934 38.5283 99.7789 37.9482 100.158 37.143H102.395ZM110.032 14.2682L110.245 17.6426L101.401 39.6294H99.0566L108.185 18.3885C108.209 18.3411 108.292 18.1517 108.434 17.8202C108.6 17.465 108.777 17.0624 108.967 16.6125C109.156 16.1389 109.322 15.689 109.464 15.2627C109.606 14.8365 109.689 14.505 109.713 14.2682H110.032ZM114.437 30.6074V31.8861H103.639V30.6074H114.437ZM115.538 37.143H119.978C120.357 37.9482 120.83 38.5283 121.399 38.8835C121.991 39.215 122.559 39.3808 123.104 39.3808C123.104 39.3808 123.151 39.3808 123.246 39.3808C123.34 39.3808 123.388 39.3808 123.388 39.3808V39.736H113.868V39.3808H114.188C114.638 39.3808 115.041 39.1914 115.396 38.8125C115.751 38.4099 115.798 37.8534 115.538 37.143Z" fill="#789C62"/>
<path d="M131.471 39.696L124.758 27.9744V26.4115H125.54C126.795 26.4115 127.848 26.2931 128.701 26.0563C129.577 25.8195 130.264 25.4288 130.761 24.8842C131.258 24.3395 131.554 23.5936 131.649 22.6464H124.758V20.3731H131.613C131.448 19.497 131.116 18.7866 130.619 18.2419C130.122 17.6736 129.447 17.2592 128.594 16.9987C127.765 16.7382 126.747 16.608 125.54 16.608H124.758V14.3347H139.463V16.608H132.75C133.295 17.0579 133.745 17.5907 134.1 18.2064C134.455 18.8221 134.68 19.5443 134.775 20.3731H139.463V22.6464H134.846C134.68 24.375 134.017 25.7248 132.857 26.6957C131.72 27.6429 130.204 28.2467 128.31 28.5072L135.094 39.696H131.471Z" fill="#DBBA44"/>
<path d="M6.97378 48.704H8.53666C9.04184 48.704 9.47597 48.7948 9.83906 48.9763C10.2022 49.1579 10.4824 49.4223 10.6797 49.7696C10.877 50.109 10.9757 50.5155 10.9757 50.9891C10.9757 51.3522 10.9047 51.6798 10.7626 51.9718C10.6205 52.256 10.4311 52.4968 10.1943 52.6941C9.95746 52.8914 9.68909 53.0414 9.38914 53.144C9.0892 53.2387 8.77741 53.2742 8.45378 53.2506C8.13805 53.2269 7.83021 53.1361 7.53026 52.9782V52.8598C7.53026 52.8598 7.59736 52.8717 7.73154 52.8954C7.86573 52.9112 8.03544 52.9151 8.24066 52.9072C8.45378 52.8914 8.6748 52.848 8.9037 52.777C9.1405 52.698 9.35757 52.5638 9.5549 52.3744C9.76013 52.185 9.91405 51.9205 10.0167 51.5811C10.0403 51.4943 10.0601 51.3877 10.0759 51.2614C10.0916 51.1273 10.0956 50.997 10.0877 50.8707C10.0798 50.3261 9.93773 49.888 9.66146 49.5565C9.3852 49.225 8.99448 49.0592 8.4893 49.0592H7.09218C7.09218 49.0592 7.08034 49.0316 7.05666 48.9763C7.04088 48.9132 7.02114 48.854 6.99746 48.7987C6.98168 48.7356 6.97378 48.704 6.97378 48.704ZM7.1277 48.704V56.992H6.3581V48.704H7.1277ZM6.39362 56.1277V56.992H5.44642V56.8736C5.44642 56.8736 5.4701 56.8736 5.51746 56.8736C5.57272 56.8736 5.60034 56.8736 5.60034 56.8736C5.80557 56.8736 5.97922 56.8026 6.1213 56.6605C6.27128 56.5105 6.35021 56.3329 6.3581 56.1277H6.39362ZM6.39362 49.5683H6.3581C6.3581 49.3631 6.28312 49.1894 6.13314 49.0474C5.98317 48.8974 5.80557 48.8224 5.60034 48.8224C5.60034 48.8224 5.57666 48.8224 5.5293 48.8224C5.48194 48.8224 5.45826 48.8224 5.45826 48.8224L5.44642 48.704H6.39362V49.5683ZM7.09218 56.1277H7.1277C7.1356 56.3329 7.21058 56.5105 7.35266 56.6605C7.50264 56.8026 7.68024 56.8736 7.88546 56.8736C7.88546 56.8736 7.90914 56.8736 7.9565 56.8736C8.01176 56.8736 8.03938 56.8736 8.03938 56.8736V56.992H7.09218V56.1277ZM40.5619 48.5382L44.0666 56.921H43.0602L40.3251 49.663L40.5619 48.5382ZM38.0163 56.1277C37.9611 56.2856 37.9532 56.4197 37.9926 56.5302C38.0321 56.6408 38.0953 56.7276 38.1821 56.7907C38.2768 56.846 38.3715 56.8736 38.4662 56.8736H38.5728V56.992H36.193V56.8736C36.193 56.8736 36.2127 56.8736 36.2522 56.8736C36.2837 56.8736 36.2995 56.8736 36.2995 56.8736C36.4811 56.8736 36.6666 56.8184 36.856 56.7078C37.0533 56.5894 37.2151 56.3961 37.3414 56.1277H38.0163ZM40.5619 48.5382L40.6685 49.367L37.6966 56.9565H36.9862L40.0173 49.7578C40.0173 49.7578 40.037 49.7104 40.0765 49.6157C40.1238 49.5131 40.1751 49.3907 40.2304 49.2486C40.2935 49.1066 40.3449 48.9684 40.3843 48.8342C40.4317 48.7001 40.4554 48.6014 40.4554 48.5382H40.5619ZM42.2314 53.7597V54.1149H38.5254V53.7597H42.2314ZM42.7642 56.1277H43.735C43.8534 56.3961 44.0113 56.5894 44.2086 56.7078C44.406 56.8184 44.5954 56.8736 44.777 56.8736C44.777 56.8736 44.7927 56.8736 44.8243 56.8736C44.8559 56.8736 44.8717 56.8736 44.8717 56.8736V56.992H42.2077V56.8736H42.3142C42.4642 56.8736 42.5984 56.8105 42.7168 56.6842C42.8352 56.55 42.851 56.3645 42.7642 56.1277ZM73.5316 48.7395V56.992H72.762V48.7395H73.5316ZM76.5745 48.6922V49.0474H69.7191V48.6922H76.5745ZM76.5745 49.0118V49.9709L76.4561 49.959V49.7578C76.4561 49.5604 76.385 49.3947 76.243 49.2605C76.1088 49.1263 75.947 49.0553 75.7575 49.0474V49.0118H76.5745ZM76.5745 48.479V48.8224L75.13 48.6922C75.3037 48.6922 75.4852 48.6803 75.6746 48.6566C75.872 48.633 76.0535 48.6053 76.2193 48.5738C76.385 48.5422 76.5034 48.5106 76.5745 48.479ZM72.7975 56.1277V56.992H71.8503V56.8736C71.8503 56.8736 71.874 56.8736 71.9214 56.8736C71.9766 56.8736 72.0042 56.8736 72.0042 56.8736C72.2095 56.8736 72.3831 56.8026 72.5252 56.6605C72.6752 56.5105 72.7541 56.3329 72.762 56.1277H72.7975ZM73.4961 56.1277H73.5316C73.5395 56.3329 73.6145 56.5105 73.7566 56.6605C73.9065 56.8026 74.0841 56.8736 74.2894 56.8736C74.2894 56.8736 74.313 56.8736 74.3604 56.8736C74.4157 56.8736 74.4433 56.8736 74.4433 56.8736V56.992H73.4961V56.1277ZM70.5361 49.0118V49.0474C70.3387 49.0553 70.173 49.1263 70.0388 49.2605C69.9046 49.3947 69.8375 49.5604 69.8375 49.7578V49.959L69.7191 49.9709V49.0118H70.5361ZM69.7191 48.479C69.7981 48.5106 69.9165 48.5422 70.0743 48.5738C70.2401 48.6053 70.4216 48.633 70.619 48.6566C70.8163 48.6803 70.9978 48.6922 71.1636 48.6922L69.7191 48.8224V48.479ZM104.767 48.704V56.992H103.998V48.704H104.767ZM104.033 56.1277V56.992H103.086V56.8736C103.086 56.8736 103.11 56.8736 103.157 56.8736C103.212 56.8736 103.24 56.8736 103.24 56.8736C103.445 56.8736 103.619 56.8026 103.761 56.6605C103.911 56.5105 103.99 56.3329 103.998 56.1277H104.033ZM104.033 49.5683H103.998C103.99 49.3631 103.911 49.1894 103.761 49.0474C103.619 48.8974 103.445 48.8224 103.24 48.8224C103.24 48.8224 103.212 48.8224 103.157 48.8224C103.11 48.8224 103.086 48.8224 103.086 48.8224V48.704H104.033V49.5683ZM104.732 56.1277H104.767C104.775 56.3329 104.85 56.5105 104.992 56.6605C105.142 56.8026 105.32 56.8736 105.525 56.8736C105.525 56.8736 105.549 56.8736 105.596 56.8736C105.644 56.8736 105.671 56.8736 105.679 56.8736V56.992H104.732V56.1277ZM104.732 49.5683V48.704H105.679V48.8224C105.671 48.8224 105.644 48.8224 105.596 48.8224C105.549 48.8224 105.525 48.8224 105.525 48.8224C105.32 48.8224 105.142 48.8974 104.992 49.0474C104.85 49.1894 104.775 49.3631 104.767 49.5683H104.732ZM134.342 48.704V56.992H133.573V48.704H134.342ZM137.539 56.625V56.992H134.307V56.625H137.539ZM138.262 55.0739L137.575 56.992H135.609L136.036 56.625C136.454 56.625 136.793 56.5618 137.054 56.4355C137.322 56.3013 137.539 56.1158 137.705 55.879C137.871 55.6422 138.017 55.3739 138.143 55.0739H138.262ZM133.608 56.1277V56.992H132.661V56.8736C132.661 56.8736 132.685 56.8736 132.732 56.8736C132.788 56.8736 132.815 56.8736 132.815 56.8736C133.02 56.8736 133.194 56.8026 133.336 56.6605C133.486 56.5105 133.565 56.3329 133.573 56.1277H133.608ZM133.608 49.5683H133.573C133.565 49.3631 133.486 49.1894 133.336 49.0474C133.194 48.8974 133.02 48.8224 132.815 48.8224C132.815 48.8224 132.788 48.8224 132.732 48.8224C132.685 48.8224 132.661 48.8224 132.661 48.8224V48.704H133.608V49.5683ZM134.307 49.5683V48.704H135.254V48.8224C135.246 48.8224 135.219 48.8224 135.171 48.8224C135.124 48.8224 135.1 48.8224 135.1 48.8224C134.895 48.8224 134.717 48.8974 134.567 49.0474C134.425 49.1894 134.35 49.3631 134.342 49.5683H134.307Z" fill="black"/>
</g>
<defs>
<clipPath id="clip0_1_2">
<rect width="148" height="65.712" fill="white"/>
</clipPath>
</defs>
</svg>
